<?xml version="1.0" standalone="no"?>
<!DOCTYPE svg PUBLIC "-//W3C//DTD SVG 1.0//EN" "http://www.w3.org/TR/2001/REC-SVG-20010904/DTD/svg10.dtd">
<svg xmlns="http://www.w3.org/2000/svg" xmlns:xlink="http://www.w3.org/1999/xlink" id="body_1" width="80" height="80">

<g transform="matrix(0.8000001 0 0 0.8000001 0 0)">
    <path d="M96.622 40.878L85.186005 37.060997L83.545006 33.080997L88.94601 22.285997C 89.34201 21.493998 89.188 20.537998 88.562004 19.910997L88.562004 19.910997L79.837006 11.184998C 79.212006 10.559998 78.256004 10.402998 77.463005 10.798998L77.463005 10.798998L66.66701 16.195997L62.688007 14.547997L58.872 3.253C 58.592 2.413 57.807 2 56.921 2L56.921 2L44.579 2C 43.692997 2 42.907997 2.413 42.628 3.253L42.628 3.253L38.811996 14.627L34.832996 16.237L24.036 10.82C 23.243 10.424 22.286999 10.571 21.661999 11.196L21.661999 11.196L12.935999 19.917C 12.3099985 20.543 12.154999 21.497 12.549999 22.289L12.549999 22.289L17.946999 33.083L16.3 37.062L4.628 40.879C 3.788 41.159 3 41.944 3 42.83L3 42.83L3 55.171C 3 56.057003 3.788 56.842003 4.6280003 57.122L4.6280003 57.122L16.189 60.938004L17.893 64.91701L12.523 75.713005C 12.127 76.505005 12.297 77.461006 12.922999 78.087006L12.922999 78.087006L21.655998 86.813C 22.280998 87.439 23.239998 87.593 24.032999 87.199005L24.032999 87.199005L34.831 81.802L38.811 83.450005L42.628002 94.747C 42.908 95.587 43.694 96 44.58 96L44.58 96L56.922 96C 57.808002 96 58.593002 95.587 58.873 94.747L58.873 94.747L62.689003 83.373L66.668 81.763L77.464 87.18C 78.256996 87.577 79.213 87.43 79.838 86.804L79.838 86.804L88.563995 78.083C 89.189995 77.457 89.34499 76.503 88.95 75.711L88.95 75.711L83.55299 64.916L85.201 60.937L96.62299 57.121002C 97.46299 56.841003 98.00099 56.056004 98.00099 55.170002L98.00099 55.170002L98.00099 42.83C 98 41.944 97.462 41.158 96.622 40.878zM94 53.688L83.037 57.333C 82.472 57.521 82.001 57.946 81.773 58.497L81.773 58.497L79.399 64.211C 79.170006 64.762 79.189 65.385 79.456 65.918L79.456 65.918L84.609 76.228L77.979004 82.856995L67.66901 77.702995C 67.13601 77.436 66.51101 77.41599 65.962006 77.642L65.962006 77.642L60.248005 80.008995C 59.697006 80.23799 59.272003 80.59699 59.084003 81.161995L59.084003 81.161995L55.438 92L46.061 92L42.416 81.162C 42.228 80.597 41.803 80.189 41.252 79.96L41.252 79.96L35.538 77.617C 34.988 77.389 34.364998 77.423 33.830997 77.689995L33.830997 77.689995L23.520996 82.84999L16.891996 76.22399L22.045996 65.91599C 22.312996 65.382996 22.334995 64.759995 22.106997 64.20999L22.106997 64.20999L19.739996 58.49699C 19.510996 57.94599 19.276997 57.52199 18.711996 57.33299L18.711996 57.33299L8 53.688L8 44.312L18.713001 40.667C 19.278002 40.479 19.624 40.054 19.852001 39.503L19.852001 39.503L22.164001 33.788998C 22.393002 33.238 22.342001 32.614998 22.076002 32.081997L22.076002 32.081997L16.908 21.772997L23.53 15.142997L33.836 20.297997C 34.371 20.565996 34.991997 20.586996 35.541 20.358997L35.541 20.358997L41.254 17.991997C 41.805 17.762997 42.229 17.403997 42.418003 16.838997L42.418003 16.838997L46.062 6L55.439 6L59.084 16.838001C 59.272 17.403002 59.697 17.811 60.248 18.04L60.248 18.04L65.962 20.383001C 66.511 20.611002 67.134995 20.577002 67.669 20.310001L67.669 20.310001L77.979 15.149002L84.607994 21.776001L79.453995 32.083C 79.187 32.616 79.16499 33.238 79.393 33.789L79.393 33.789L81.759995 39.503002C 81.98899 40.054 82.47299 40.478 83.037994 40.667004L83.037994 40.667004L94 44.312L94 53.688z" stroke="none" fill="#000000" fill-rule="nonzero" />
    <path d="M50.75 34.603C 42.812 34.603 36.353 41.061 36.353 49C 36.353 56.938 42.812 63.397 50.75 63.397C 58.688 63.397 65.147 56.938 65.147 49C 65.147 41.061 58.688 34.603 50.75 34.603zM50.75 59.284C 45.079 59.284 40.466 54.671 40.466 49C 40.466 43.33 45.079 38.716 50.75 38.716C 56.421 38.716 61.034 43.33 61.034 49C 61.034 54.671 56.421 59.284 50.75 59.284z" stroke="none" fill="#000000" fill-rule="nonzero" />
</g>
</svg>