<?xml version="1.0" standalone="no"?>
<!DOCTYPE svg PUBLIC "-//W3C//DTD SVG 1.0//EN" "http://www.w3.org/TR/2001/REC-SVG-20010904/DTD/svg10.dtd">
<svg xmlns="http://www.w3.org/2000/svg" xmlns:xlink="http://www.w3.org/1999/xlink" id="body_1" width="70" height="70">

<g transform="matrix(0.7 0 0 0.7 0 0)">
    <path d="M97.884 38.381C 97.64101 37.631 96.992004 37.086002 96.213005 36.972L96.213005 36.972L65.88501 32.565L52.32 5.084C 51.971 4.377 51.252 3.93 50.464 3.93C 49.676003 3.93 48.957 4.377 48.608 5.084L48.608 5.084L35.045 32.566L4.7149982 36.973003C 3.9359982 37.086002 3.2879982 37.632004 3.0439982 38.382004C 2.7999983 39.132004 3.0029984 39.954002 3.5679982 40.504005L3.5679982 40.504005L25.513998 61.897003L20.332998 92.103004C 20.199999 92.879005 20.519 93.665 21.155998 94.12701C 21.516998 94.38901 21.943998 94.52301 22.372997 94.52301C 22.702997 94.52301 23.032997 94.44401 23.335997 94.28501L23.335997 94.28501L50.461998 80.02501L77.59 94.28501C 78.285995 94.65201 79.131996 94.59201 79.77 94.12801C 80.408 93.665016 80.727 92.88001 80.592995 92.10401L80.592995 92.10401L75.411995 61.89801L97.36 40.503C 97.924 39.953 98.127 39.131 97.884 38.381zM71.744 59.691C 71.257 60.167004 71.034004 60.852 71.149 61.523003L71.149 61.523003L75.805 88.668L51.427 75.854C 51.126 75.695 50.795 75.616 50.463997 75.616C 50.132996 75.616 49.802 75.695 49.500996 75.854L49.500996 75.854L25.123 88.668L29.779 61.523C 29.894 60.851997 29.671999 60.167 29.184 59.690998L29.184 59.690998L9.461 40.466L36.717003 36.506C 37.391003 36.408 37.974003 35.985 38.276 35.374L38.276 35.374L50.464 10.677L62.653 35.374C 62.954998 35.985 63.538 36.409 64.212 36.506L64.212 36.506L91.466995 40.466L71.744 59.691z" stroke="none" fill="#000000" fill-rule="nonzero" />
</g>
</svg>