<?xml version="1.0" standalone="no"?>
<!DOCTYPE svg PUBLIC "-//W3C//DTD SVG 1.0//EN" "http://www.w3.org/TR/2001/REC-SVG-20010904/DTD/svg10.dtd">
<svg xmlns="http://www.w3.org/2000/svg" xmlns:xlink="http://www.w3.org/1999/xlink" id="body_1" width="80" height="80">

<g transform="matrix(0.8000001 0 0 0.8000001 0 0)">
    <path d="M80.662 33.798C 80.063 17.427 66.566 4.291 50.051 4.291C 33.534996 4.291 20.036999 17.428 19.439 33.801C 9.733999 34.751 2.1219997 42.954998 2.1219997 52.906998C 2.1219997 70.707 19.154 87.94299 19.879 88.668L19.879 88.668L21.323 90.112L22.767 88.668C 23.031 88.404 28.66 82.723 33.527 74.576996C 33.704 74.84699 33.871002 75.115 34.052002 75.385994C 41.231003 86.15499 48.308002 93.272995 48.606003 93.57099L48.606003 93.57099L50.050003 95.01499L51.494003 93.57099C 51.792004 93.272995 58.869003 86.15499 66.048004 75.385994C 66.23601 75.104 66.41 74.825 66.594 74.54399C 71.466 82.70799 77.11 88.40499 77.374 88.66899L77.374 88.66899L78.818 90.11299L80.262 88.66899C 80.987 87.94399 98.019 70.70799 98.019 52.90799C 98.021 42.94 90.387 34.729 80.662 33.798zM79.341 46.391C 82.466 46.858997 84.873 49.554 84.873 52.808C 84.873 56.39 81.959 59.303997 78.377 59.303997C 77.273 59.303997 76.233 59.024998 75.322 58.538C 77.103 54.384 78.447 50.331 79.341 46.391zM24.759 58.49C 23.827002 59.007 22.757 59.304 21.617 59.304C 18.035 59.304 15.121 56.39 15.121 52.808002C 15.121 49.519 17.581001 46.799004 20.756 46.376003C 21.647 50.306 22.985 54.348 24.759 58.49zM21.324 84.228C 17.29 79.731 6.208 66.165 6.208 52.906C 6.208 45.184 12.032 38.806 19.515999 37.907997C 19.641998 39.901997 19.89 41.927998 20.265999 43.986996C 15.98 44.640995 12.682999 48.341995 12.682999 52.806995C 12.682999 57.732994 16.690998 61.739994 21.615997 61.739994C 23.107998 61.739994 24.513998 61.367992 25.751997 60.718994C 27.257998 63.977993 29.026997 67.296 31.065998 70.67C 27.66 76.817 23.484 81.822 21.324 84.228zM50.051 89.154C 44.315998 82.926 23.495998 58.679 23.495998 34.93C 23.495998 20.288 35.407997 8.375 50.051 8.375C 64.693 8.375 76.604996 20.288 76.604996 34.93C 76.605 58.68 55.786 82.927 50.051 89.154zM78.818 84.227C 76.653 81.814995 72.466 76.797 69.056 70.636C 71.076 67.288 72.832 63.996002 74.328 60.762C 75.545006 61.384003 76.918 61.741 78.376 61.741C 83.302 61.741 87.309 57.733 87.309 52.808002C 87.309 48.379 84.064995 44.702003 79.83 44.004C 80.208 41.937 80.457 39.903 80.583 37.902C 88.088 38.78 93.933 45.169 93.933 52.906C 93.935 66.141 82.852 79.724 78.818 84.227z" stroke="none" fill="#000000" fill-rule="nonzero" />
    <path d="M49.879 17.572C 41.795002 17.572 35.218002 24.149 35.218002 32.233C 35.218002 40.317 41.795002 46.894 49.879 46.894C 57.963 46.894 64.54 40.317 64.54 32.233C 64.54 24.149002 57.963 17.572 49.879 17.572zM49.879 42.895C 44 42.895 39.218002 38.112 39.218002 32.234C 39.218002 26.356003 44 21.572 49.879 21.572C 55.758003 21.572 60.54 26.355 60.54 32.233C 60.54 38.111004 55.758 42.895 49.879 42.895z" stroke="none" fill="#000000" fill-rule="nonzero" />
</g>
</svg>