<?xml version="1.0" standalone="no"?>
<!DOCTYPE svg PUBLIC "-//W3C//DTD SVG 20010904//EN"
 "http://www.w3.org/TR/2001/REC-SVG-20010904/DTD/svg10.dtd">
<svg version="1.0" xmlns="http://www.w3.org/2000/svg"
 width="1400.000000pt" height="717.000000pt" viewBox="0 0 1400.000000 717.000000"
 preserveAspectRatio="xMidYMid meet">

<g transform="translate(0.000000,717.000000) scale(0.100000,-0.100000)"
fill="#000000" stroke="none">
<path d="M3385 6315 c-113 -27 -222 -113 -276 -216 -31 -59 -67 -170 -81 -249
-16 -87 -15 -349 0 -430 62 -318 222 -473 487 -473 152 1 241 37 332 137 44
47 89 124 107 180 13 40 35 159 31 166 -5 8 -105 18 -210 22 l-60 2 -8 -50
c-11 -70 -60 -165 -100 -191 -60 -41 -151 -28 -204 29 -65 70 -95 275 -75 516
16 188 53 276 133 316 116 58 229 -44 246 -222 l6 -64 56 6 c31 3 91 8 134 12
l77 6 -5 51 c-22 204 -104 355 -228 418 -92 48 -249 62 -362 34z"/>
<path d="M2490 5843 c0 -508 -5 -576 -47 -615 -22 -21 -33 -23 -114 -22 l-89
2 0 -119 0 -119 28 -11 c45 -18 249 -15 307 5 70 24 122 62 151 112 49 83 54
151 54 715 l0 519 -145 0 -145 0 0 -467z"/>
<path d="M4442 6293 c-5 -10 -16 -43 -25 -73 -9 -30 -29 -100 -45 -155 -17
-55 -42 -140 -57 -190 -15 -49 -33 -108 -40 -130 -8 -22 -35 -112 -60 -200
-26 -88 -55 -185 -65 -215 -10 -30 -31 -98 -45 -150 -15 -52 -33 -114 -41
-138 -25 -75 -30 -72 120 -72 l133 0 18 78 c34 149 45 186 57 194 7 4 88 8
180 8 126 0 170 -3 180 -13 7 -8 26 -71 42 -141 l30 -127 150 3 c128 3 150 5
148 18 -2 8 -13 47 -24 85 -10 39 -28 104 -39 145 -11 41 -23 82 -26 90 -9 21
-77 260 -114 400 -11 41 -24 84 -28 95 -9 18 -63 210 -115 400 -12 44 -25 86
-29 93 -6 9 -48 12 -152 12 -127 0 -145 -2 -153 -17z m143 -340 c3 -16 10 -44
16 -63 38 -138 97 -408 91 -415 -10 -9 -241 -5 -247 5 -3 5 -1 29 5 52 23 86
30 115 55 223 14 61 30 126 35 146 6 20 10 46 10 58 0 31 29 26 35 -6z"/>
<path d="M2705 4145 c-145 -35 -249 -135 -315 -300 -60 -150 -78 -421 -40
-608 47 -233 144 -370 306 -434 59 -23 83 -27 174 -27 112 1 167 14 245 60 89
52 175 172 203 284 20 81 30 140 23 144 -3 2 -62 7 -131 11 -69 5 -127 8 -130
9 -3 1 -6 -8 -8 -19 -1 -11 -12 -51 -24 -90 -33 -111 -110 -174 -193 -158 -51
10 -102 51 -126 101 -65 138 -64 546 1 684 59 127 193 155 272 57 29 -36 68
-156 68 -210 l0 -30 83 6 c45 3 106 8 135 11 l52 6 -5 51 c-22 194 -103 345
-220 411 -95 53 -253 70 -370 41z"/>
<path d="M8481 4140 c-7 -4 -8 -236 -3 -262 1 -5 65 -8 142 -8 l140 0 0 134 0
135 -136 3 c-75 2 -139 1 -143 -2z"/>
<path d="M7307 4133 c-4 -3 -7 -305 -7 -670 l0 -663 140 0 140 0 0 670 0 670
-133 0 c-74 0 -137 -3 -140 -7z"/>
<path d="M7990 4100 l-125 -5 -3 -152 -3 -152 -52 -3 -52 -3 0 -105 0 -105 53
-3 52 -3 0 -237 c1 -326 18 -430 82 -488 55 -51 107 -68 213 -68 55 0 117 3
138 7 l38 8 -3 105 -3 105 -61 3 c-69 4 -98 16 -116 49 -13 24 -25 446 -14
492 6 24 9 25 96 25 l90 0 0 110 0 110 -89 0 c-72 0 -90 3 -95 16 -3 9 -6 81
-6 160 0 79 -3 143 -7 142 -5 -1 -64 -5 -133 -8z"/>
<path d="M10680 3949 c-50 -20 -90 -80 -90 -134 0 -26 -24 -50 -39 -40 -51 31
-232 45 -300 24 -144 -46 -188 -76 -228 -156 -23 -48 -27 -69 -26 -137 0 -99
24 -158 83 -209 38 -33 51 -57 30 -57 -16 0 -100 -81 -114 -109 -40 -80 -29
-159 31 -218 48 -49 52 -59 23 -68 -30 -9 -79 -53 -95 -86 -24 -46 -19 -135
10 -185 29 -49 68 -76 157 -106 55 -20 84 -22 223 -22 145 0 168 3 245 27 156
50 225 128 237 274 14 169 -70 272 -243 297 -23 3 -105 10 -183 16 -164 12
-201 24 -201 69 0 37 51 83 83 77 161 -33 320 8 403 102 75 85 86 229 25 337
-30 54 -31 58 -16 81 25 39 59 56 107 52 l43 -3 0 90 0 90 -70 2 c-38 1 -81
-2 -95 -8z m-260 -309 c26 -26 36 -52 44 -115 9 -75 -12 -145 -52 -168 -28
-17 -37 -17 -63 -7 -17 7 -37 23 -44 34 -19 28 -29 115 -21 170 14 89 87 135
136 86z m12 -819 c95 -7 135 -26 152 -75 16 -42 -3 -78 -54 -104 -41 -21 -56
-23 -160 -20 -127 3 -166 17 -198 71 -16 26 -16 30 3 64 11 21 36 48 55 61 29
19 42 22 75 16 22 -3 79 -9 127 -13z"/>
<path d="M3705 3786 c-97 -35 -153 -83 -196 -168 -81 -160 -79 -504 5 -666 38
-73 97 -121 196 -160 52 -20 224 -19 283 1 71 25 98 41 133 79 92 99 116 176
122 382 5 201 -6 265 -66 384 -37 72 -111 131 -195 154 -23 6 -82 12 -132 14
-73 2 -101 -1 -150 -20z m185 -181 c42 -22 60 -63 72 -168 11 -100 4 -320 -12
-378 -24 -86 -110 -118 -162 -61 -42 45 -53 109 -53 297 0 182 10 239 49 284
19 21 49 39 69 40 4 1 21 -6 37 -14z"/>
<path d="M4845 3787 c-28 -13 -66 -40 -85 -60 -19 -21 -38 -37 -42 -37 -4 0
-8 23 -8 50 l0 50 -130 0 -130 0 0 -495 0 -495 140 0 140 0 0 338 c0 200 4
352 10 374 14 50 52 78 105 78 59 0 86 -24 96 -86 4 -27 8 -195 8 -374 l0
-325 141 -3 141 -3 -5 388 c-3 213 -10 412 -15 442 -21 109 -108 174 -241 178
-61 2 -84 -1 -125 -20z"/>
<path d="M5623 3786 c-108 -40 -167 -100 -198 -201 -20 -67 -19 -120 4 -182
40 -109 94 -152 279 -223 80 -30 120 -52 137 -72 56 -67 11 -148 -82 -148 -63
0 -106 29 -135 90 -26 56 -25 56 -153 37 l-80 -12 -3 -32 c-5 -47 49 -155 96
-190 103 -81 262 -102 417 -57 107 31 182 103 212 203 46 150 -16 298 -145
353 -26 10 -56 23 -67 28 -11 5 -53 21 -94 36 -97 37 -131 69 -131 123 0 57
26 81 87 81 41 0 50 -4 84 -40 22 -22 42 -52 45 -66 6 -22 10 -24 38 -18 17 3
36 9 41 13 6 3 35 13 65 21 54 15 55 16 52 49 -3 45 -67 138 -118 174 -53 37
-101 49 -204 53 -69 2 -97 -2 -147 -20z"/>
<path d="M9403 3789 c-28 -11 -69 -38 -91 -59 -22 -22 -42 -40 -46 -40 -3 0
-6 23 -6 50 l0 50 -130 0 -130 0 0 -495 0 -495 139 0 140 0 3 364 3 365 29 30
c25 26 37 31 78 31 40 0 53 -5 73 -26 l25 -27 0 -369 0 -369 140 3 141 3 -1
376 c0 376 -6 463 -33 516 -51 97 -208 140 -334 92z"/>
<path d="M6293 3378 c3 -285 8 -425 17 -453 29 -97 105 -147 224 -149 105 -1
162 18 218 77 50 52 62 50 56 -11 l-3 -37 133 -3 132 -3 0 496 0 495 -139 0
-139 0 -4 -358 -3 -359 -28 -36 c-44 -58 -129 -63 -164 -10 -16 24 -18 64 -21
395 l-4 368 -140 0 -140 0 5 -412z"/>
<path d="M8480 3295 l0 -495 140 0 140 0 0 495 0 495 -140 0 -140 0 0 -495z"/>
<path d="M0 868 l0 -868 7000 0 7000 0 0 865 c0 476 -3 865 -7 866 -5 0 -3155
1 -7001 2 l-6992 2 0 -867z m4695 148 c0 -37 -2 -40 -40 -50 -33 -9 -41 -17
-43 -39 -3 -26 -2 -27 43 -27 l46 0 -3 -42 c-3 -43 -3 -43 -45 -46 l-43 -3 -2
-172 -3 -172 -50 0 -50 0 -3 172 -2 172 -28 3 c-24 3 -27 8 -30 45 -3 39 -1
42 25 45 21 2 29 9 31 28 10 91 59 130 157 127 40 -2 40 -2 40 -41z m3742 12
c44 -20 83 -64 83 -92 0 -9 -15 -19 -37 -25 -55 -16 -67 -14 -91 14 -40 46
-128 46 -158 0 -15 -23 -15 -27 0 -50 10 -15 33 -29 58 -35 134 -35 176 -51
206 -81 62 -61 64 -168 4 -233 -70 -74 -220 -94 -326 -42 -58 29 -94 68 -98
107 -3 21 3 25 42 35 52 13 67 9 75 -16 10 -32 54 -52 116 -53 49 0 64 4 84
23 52 49 25 90 -75 115 -36 9 -88 25 -115 36 -158 61 -132 284 36 319 60 12
145 3 196 -22z m-6019 -270 l-3 -293 -52 -3 -53 -3 0 295 0 296 55 0 55 0 -2
-292z m492 242 c0 -27 -3 -50 -7 -51 -5 0 -37 -1 -73 -2 l-65 -2 -5 -240 -5
-240 -54 -3 c-36 -2 -57 1 -63 10 -4 7 -8 114 -7 237 0 123 -3 227 -8 232 -4
4 -37 9 -73 11 l-65 3 -3 48 -3 47 215 0 216 0 0 -50z m613 39 c59 -16 103
-61 117 -119 20 -83 -5 -153 -71 -197 -36 -23 -54 -28 -142 -32 l-102 -6 -5
-110 -5 -110 -55 0 -55 0 -3 293 -2 292 142 0 c79 0 160 -5 181 -11z m2613
-13 c3 -13 4 -37 2 -52 -3 -28 -5 -29 -58 -29 -53 0 -55 1 -58 29 -2 15 -1 39
2 52 6 21 12 24 56 24 44 0 50 -3 56 -24z m1639 -271 l0 -290 -50 0 -50 0 -3
293 -2 293 52 -3 53 -3 0 -290z m2135 239 l0 -55 -52 3 -53 3 -3 39 c-5 59 1
66 58 66 l50 0 0 -56z m-5950 -139 l0 -54 -39 -11 c-63 -17 -75 -44 -81 -195
l-5 -130 -43 -3 c-24 -2 -49 2 -56 7 -10 9 -13 60 -11 219 l2 207 49 0 c43 0
49 -3 52 -23 3 -23 4 -23 38 8 22 19 46 30 64 30 30 0 30 -1 30 -55z m326 35
c127 -62 155 -270 49 -375 -63 -64 -157 -79 -235 -40 -130 67 -147 307 -27
395 59 44 146 52 213 20z m767 -10 c49 -34 81 -97 82 -162 l0 -53 -143 -3
-143 -3 6 -32 c9 -44 48 -77 91 -77 26 0 43 8 69 34 31 31 37 33 70 26 45 -10
48 -13 41 -38 -22 -68 -101 -115 -194 -116 -53 0 -68 5 -105 30 -65 46 -89 98
-89 193 0 112 37 177 122 216 52 23 148 16 193 -15z m372 20 c44 -10 98 -61
93 -88 -2 -10 -19 -20 -41 -25 -33 -8 -42 -6 -61 12 -15 14 -35 21 -62 21 -48
0 -67 -11 -62 -36 2 -14 19 -23 63 -33 149 -34 189 -66 188 -149 -1 -56 -23
-96 -63 -117 -106 -55 -258 -29 -301 51 -16 30 -5 43 45 51 29 4 42 1 59 -15
44 -41 137 -34 145 11 4 20 -38 40 -123 57 -122 25 -163 141 -79 225 42 42
114 55 199 35z m444 -16 c29 -17 64 -71 56 -85 -3 -3 -23 -9 -46 -13 -35 -6
-45 -3 -61 14 -24 25 -99 28 -119 4 -11 -14 -10 -19 9 -34 12 -10 41 -21 65
-25 77 -12 116 -28 144 -57 24 -25 28 -37 28 -88 0 -66 -19 -96 -83 -126 -42
-20 -141 -23 -193 -5 -40 13 -86 56 -91 85 -5 32 78 48 106 21 24 -24 66 -36
103 -29 34 6 57 32 45 50 -9 14 -58 32 -107 40 -53 9 -89 28 -115 61 -18 23
-21 37 -18 81 8 92 71 135 190 128 31 -2 70 -12 87 -22z m675 -8 c50 -38 75
-77 87 -139 16 -77 -1 -152 -47 -206 -48 -55 -87 -74 -155 -74 -76 0 -126 26
-164 88 -28 45 -30 56 -30 141 0 86 2 95 30 136 44 63 103 91 183 85 47 -4 70
-11 96 -31z m498 -3 c42 -40 49 -81 46 -253 l-3 -155 -50 0 -50 0 -5 153 c-5
147 -6 155 -29 173 -28 23 -40 24 -69 3 -39 -27 -46 -55 -52 -194 l-5 -135
-50 0 -50 0 -3 218 -2 218 52 -3 c48 -3 53 -5 52 -25 -1 -29 8 -29 32 -2 28
31 53 39 108 34 36 -3 57 -12 78 -32z m467 15 c48 -34 53 -52 58 -211 3 -84 6
-165 7 -182 1 -29 -1 -30 -47 -33 -32 -2 -48 1 -51 10 -16 53 -17 54 -29 37
-26 -34 -68 -52 -121 -52 -92 0 -149 54 -149 140 0 83 62 129 190 144 90 10
102 18 79 53 -27 41 -108 38 -149 -5 -28 -29 -40 -30 -94 -13 -40 12 18 96 82
120 53 19 192 14 224 -8z m1410 -7 c46 -33 79 -97 83 -161 l3 -55 -142 -3
c-136 -2 -143 -4 -143 -23 0 -28 26 -75 45 -83 42 -16 87 -6 116 25 26 28 34
31 70 26 22 -3 43 -8 47 -11 7 -7 -23 -62 -47 -87 -51 -53 -178 -70 -242 -33
-56 33 -96 94 -104 161 -14 123 40 233 130 263 50 16 149 6 184 -19z m411 -25
l0 -54 -42 -14 c-61 -19 -72 -47 -78 -198 l-5 -125 -50 0 -50 0 -3 218 -2 218
47 -3 c41 -3 48 -6 51 -26 3 -23 4 -23 38 8 22 19 46 30 64 30 30 0 30 -1 30
-54z m932 44 c43 -12 93 -66 103 -110 8 -38 7 -40 -43 -47 -36 -5 -41 -3 -53
23 -8 16 -26 35 -41 43 -25 14 -29 14 -55 -5 -54 -41 -64 -193 -15 -230 38
-29 86 -13 113 37 8 16 19 19 52 17 41 -3 42 -4 40 -37 -4 -88 -111 -153 -213
-130 -90 20 -143 101 -143 219 0 168 107 261 255 220z m458 -12 c60 -30 98
-93 102 -168 l3 -55 -142 -3 c-136 -2 -143 -4 -143 -23 0 -28 26 -75 45 -83
43 -16 86 -6 120 28 31 31 38 34 67 26 17 -6 36 -14 41 -19 14 -14 -42 -86
-87 -112 -48 -27 -146 -30 -193 -6 -128 67 -150 279 -40 387 55 54 152 66 227
28z m428 -2 c34 -17 69 -73 55 -86 -4 -4 -27 -11 -50 -15 -36 -6 -43 -4 -53
15 -10 18 -19 21 -63 18 -48 -3 -52 -5 -52 -28 0 -27 9 -31 130 -59 31 -7 61
-23 80 -42 27 -26 30 -36 30 -88 0 -67 -19 -97 -83 -127 -42 -20 -151 -22
-197 -4 -42 16 -85 60 -85 86 0 19 7 24 46 30 39 6 48 3 70 -17 42 -39 144
-27 144 17 0 18 -48 39 -123 54 -79 16 -117 50 -124 111 -8 72 38 138 107 152
43 9 136 0 168 -17z m-5010 -186 c1 -107 0 -205 -3 -217 -5 -19 -12 -23 -48
-23 -24 0 -48 5 -55 12 -13 13 -18 409 -5 422 4 4 30 6 58 4 l50 -3 3 -195z
m3372 103 c17 -54 35 -106 41 -115 5 -10 9 -25 9 -35 0 -32 13 -3 54 119 41
123 41 123 74 126 64 6 64 8 -12 -220 -70 -206 -73 -213 -100 -216 -37 -5 -76
6 -76 19 0 9 -62 194 -98 289 -30 82 -40 116 -36 122 3 5 29 8 59 8 l53 0 32
-97z m398 -120 l-3 -218 -50 0 -50 0 -3 205 c-1 112 0 210 2 217 4 8 24 13 56
13 l50 0 -2 -217z"/>
<path d="M3322 874 l3 -79 35 -3 c55 -6 120 8 141 29 24 24 24 70 1 99 -16 20
-31 24 -101 28 l-82 5 3 -79z"/>
<path d="M4141 784 c-25 -32 -34 -76 -28 -132 10 -81 61 -121 116 -91 40 23
52 56 49 136 -3 61 -7 75 -27 92 -34 30 -84 28 -110 -5z"/>
<path d="M4882 797 c-12 -13 -22 -31 -22 -40 0 -15 12 -17 80 -17 71 0 80 2
80 18 0 56 -97 83 -138 39z"/>
<path d="M6391 799 c-35 -21 -46 -62 -39 -146 4 -46 10 -61 32 -80 77 -66 151
23 127 152 -15 79 -63 109 -120 74z"/>
<path d="M7368 667 c-71 -22 -95 -60 -64 -102 17 -24 76 -24 111 -1 24 16 51
88 40 106 -8 13 -40 12 -87 -3z"/>
<path d="M8741 791 c-34 -47 -29 -51 64 -51 94 0 101 6 64 54 -16 21 -29 26
-64 26 -37 0 -47 -5 -64 -29z"/>
<path d="M10561 791 c-34 -47 -29 -51 64 -51 93 0 98 4 64 51 -17 24 -27 29
-64 29 -37 0 -47 -5 -64 -29z"/>
</g>
</svg>
