<?xml version="1.0" standalone="no"?>
<!DOCTYPE svg PUBLIC "-//W3C//DTD SVG 20010904//EN"
 "http://www.w3.org/TR/2001/REC-SVG-20010904/DTD/svg10.dtd">
<svg version="1.0" xmlns="http://www.w3.org/2000/svg"
 width="1456.000000pt" height="608.000000pt" viewBox="0 0 1456.000000 608.000000"
 preserveAspectRatio="xMidYMid meet">

<g transform="translate(0.000000,608.000000) scale(0.100000,-0.100000)"
fill="#000000" stroke="none">
<path d="M1674 5048 l1 -303 308 -3 307 -2 0 305 0 305 -309 0 -309 0 2 -302z"/>
<path d="M1204 5060 c0 -146 2 -205 3 -132 2 72 2 192 0 265 -1 72 -3 13 -3
-133z"/>
<path d="M1201 4764 c0 -11 3 -14 6 -6 3 7 2 16 -1 19 -3 4 -6 -2 -5 -13z"/>
<path d="M3526 4473 c-3 -4 -6 -83 -6 -177 l0 -171 675 0 675 0 0 177 0 178
-669 0 c-368 -1 -671 -4 -675 -7z"/>
<path d="M10500 4197 c-54 -27 -46 -110 14 -130 68 -22 117 77 60 122 -31 24
-40 25 -74 8z"/>
<path d="M10736 4186 c-47 -46 -21 -119 43 -119 42 0 65 24 65 68 0 65 -64 95
-108 51z"/>
<path d="M10991 4184 l-22 -16 22 -24 c13 -13 27 -20 31 -16 13 13 18 52 7 52
-6 0 -7 5 -4 10 9 15 -8 12 -34 -6z"/>
<path d="M11054 4183 c4 -7 3 -13 -3 -13 -6 0 -8 -6 -5 -13 2 -7 -4 -21 -14
-30 -18 -16 -20 -16 -45 4 -21 16 -27 17 -27 6 0 -8 9 -17 20 -20 11 -3 20
-11 19 -19 0 -10 -2 -10 -6 0 -2 6 -9 12 -15 12 -6 0 -6 -6 2 -15 7 -8 16 -13
20 -10 5 3 11 1 15 -5 4 -6 11 -8 16 -4 5 3 6 11 2 17 -5 8 -2 8 9 -1 12 -10
17 -10 25 0 17 22 14 74 -4 89 -11 10 -14 10 -9 2z"/>
<path d="M10737 3942 c-22 -25 -21 -75 1 -95 34 -31 99 -16 69 15 -14 14 -16
33 -4 42 4 3 5 3 2 -1 -3 -3 3 -12 13 -20 9 -8 11 -11 3 -7 -9 5 -12 3 -7 -5
11 -18 26 -3 26 27 0 22 -2 24 -11 12 -9 -12 -10 -11 -6 8 9 40 -56 58 -86 24z
m81 -7 c4 -4 -4 -4 -17 0 -18 6 -22 4 -15 -6 6 -12 5 -12 -9 0 -9 7 -17 15
-17 16 0 6 51 -3 58 -10z m-77 -18 c-10 -9 -11 -8 -5 6 3 10 9 15 12 12 3 -3
0 -11 -7 -18z m5 -35 c-14 -14 -17 -14 -14 -2 3 17 20 31 27 24 3 -2 -3 -12
-13 -22z m34 3 c0 -8 -4 -15 -10 -15 -5 0 -7 7 -4 15 4 8 8 15 10 15 2 0 4 -7
4 -15z m25 -43 c-3 -3 -11 0 -18 7 -9 10 -8 11 6 5 10 -3 15 -9 12 -12z"/>
<path d="M9675 3520 c0 -206 1 -291 2 -187 2 103 2 271 0 375 -1 103 -2 18 -2
-188z"/>
<path d="M10005 3540 c0 -195 1 -275 2 -178 2 98 2 258 0 355 -1 98 -2 18 -2
-177z"/>
<path d="M10485 3695 c-30 -30 -31 -54 -4 -89 40 -50 119 -21 119 44 0 64 -70
91 -115 45z"/>
<path d="M10730 3700 c-11 -11 -20 -33 -20 -50 0 -65 79 -94 119 -44 27 35 26
59 -4 89 -29 30 -68 32 -95 5z"/>
<path d="M10987 3698 c-23 -12 -21 -28 3 -28 13 0 20 -6 19 -17 0 -11 -3 -13
-6 -5 -6 14 -43 16 -43 2 0 -5 8 -10 18 -11 10 0 12 -3 4 -6 -15 -6 -6 -23 11
-19 7 1 9 1 5 -1 -20 -11 -4 -22 28 -19 38 3 62 25 41 38 -8 5 -6 8 6 8 32 0
14 38 -21 43 -12 2 -25 7 -29 11 -5 5 5 6 22 2 16 -4 26 -4 22 0 -11 12 -61
13 -80 2z m59 -65 c-3 -7 0 -13 7 -13 8 0 6 -4 -3 -10 -8 -5 -19 -10 -25 -10
-5 0 -3 5 5 10 10 6 11 10 3 10 -7 0 -13 5 -13 11 0 5 5 7 10 4 14 -9 12 8 -2
25 -11 12 -10 12 5 0 10 -7 16 -19 13 -27z"/>
<path d="M12980 3574 c-149 -23 -247 -69 -336 -158 -124 -125 -180 -300 -150
-472 12 -72 26 -107 90 -231 23 -43 121 -132 182 -165 69 -37 154 -58 240 -58
104 0 169 15 261 60 320 158 403 591 162 854 -97 106 -319 190 -449 170z m99
-295 c103 -22 179 -107 188 -210 8 -79 -11 -139 -60 -196 -53 -59 -104 -82
-185 -83 -73 0 -124 19 -170 63 -56 53 -76 102 -76 182 0 80 20 129 77 184 33
31 120 70 159 71 9 0 40 -5 67 -11z"/>
<path d="M10001 3164 c0 -11 3 -14 6 -6 3 7 2 16 -1 19 -3 4 -6 -2 -5 -13z"/>
<path d="M9660 2960 l0 -180 180 0 180 0 0 180 0 180 -180 0 -180 0 0 -180z"/>
<path d="M5771 2520 l-4 -590 160 0 160 0 7 558 c4 306 4 572 0 590 l-6 32
-157 0 -156 0 -4 -590z"/>
<path d="M7200 3096 c-246 -56 -358 -335 -225 -562 32 -54 82 -97 158 -135 59
-30 68 -32 217 -37 120 -3 159 -8 173 -20 22 -20 22 -55 -1 -75 -16 -15 -49
-17 -255 -17 l-237 0 0 -160 0 -160 240 0 c138 0 261 5 292 11 165 35 298 197
298 365 0 97 -61 221 -143 288 -79 65 -123 77 -302 84 -159 7 -159 7 -174 33
-13 24 -13 29 2 53 l17 26 245 0 245 0 0 160 0 160 -247 -1 c-157 -1 -268 -6
-303 -13z"/>
<path d="M11220 2520 l0 -580 160 0 160 0 0 580 0 580 -160 0 -160 0 0 -580z"/>
<path d="M7982 2673 l3 -378 33 -70 c77 -162 206 -259 380 -286 64 -9 90 -9
152 4 108 22 112 23 155 48 106 60 179 148 222 267 22 61 23 73 23 427 l0 365
-150 0 -150 0 0 -337 c0 -308 -2 -342 -19 -379 -35 -77 -130 -118 -216 -94
-59 16 -119 73 -128 120 -4 18 -7 180 -7 361 l0 329 -151 0 -150 0 3 -377z"/>
<path d="M9674 2460 c0 -173 2 -244 3 -157 2 86 2 228 0 315 -1 86 -3 15 -3
-158z"/>
<path d="M10002 2750 c0 -14 2 -19 5 -12 2 6 2 18 0 25 -3 6 -5 1 -5 -13z"/>
<path d="M10004 2460 c0 -146 2 -205 3 -132 2 72 2 192 0 265 -1 72 -3 13 -3
-133z"/>
<path d="M10063 2183 c26 -2 67 -2 90 0 23 2 2 3 -48 3 -49 0 -68 -1 -42 -3z"/>
<path d="M10184 2030 c0 -80 2 -112 3 -72 2 39 2 105 0 145 -1 39 -3 7 -3 -73z"/>
<path d="M9680 2095 c0 -5 5 -17 10 -25 5 -8 10 -10 10 -5 0 6 -5 17 -10 25
-5 8 -10 11 -10 5z"/>
<path d="M9728 1995 c6 -11 27 -36 48 -55 36 -33 36 -33 -6 15 -24 28 -46 52
-48 55 -3 3 0 -4 6 -15z"/>
<path d="M10182 1860 c0 -14 2 -19 5 -12 2 6 2 18 0 25 -3 6 -5 1 -5 -13z"/>
<path d="M9938 1853 c7 -3 16 -2 19 1 4 3 -2 6 -13 5 -11 0 -14 -3 -6 -6z"/>
<path d="M3458 1843 c7 -3 16 -2 19 1 4 3 -2 6 -13 5 -11 0 -14 -3 -6 -6z"/>
<path d="M10018 1843 c28 -2 76 -2 105 0 28 2 5 3 -53 3 -58 0 -81 -1 -52 -3z"/>
<path d="M410 995 l0 -535 6800 0 6800 0 0 535 0 535 -6800 0 -6800 0 0 -535z
m1085 211 c13 -19 14 -29 5 -45 -17 -33 -41 -41 -84 -26 -69 24 -69 26 -65
-193 4 -186 3 -195 -16 -208 -13 -8 -25 -10 -34 -4 -12 7 -14 46 -12 220 2
202 2 211 -16 202 -30 -15 -95 -22 -114 -11 -28 14 -23 31 15 56 30 19 48 22
136 22 56 0 104 2 108 5 15 16 62 5 77 -18z m1577 -10 c79 -52 74 -185 -8
-216 -13 -5 -24 -16 -24 -24 0 -18 35 -79 73 -128 33 -42 30 -72 -9 -90 -19
-9 -28 -8 -44 7 -11 10 -22 27 -25 39 -4 11 -20 54 -38 94 -25 58 -35 72 -53
72 -12 0 -36 3 -53 6 l-32 7 5 -75 c3 -42 8 -87 11 -100 4 -17 0 -29 -14 -43
-18 -15 -25 -16 -47 -6 l-27 12 7 87 c4 48 7 143 7 212 -1 171 7 179 156 170
60 -4 96 -12 115 -24z m1726 12 c18 -15 15 -42 -8 -63 -18 -16 -27 -17 -113
-5 -52 7 -101 11 -109 7 -16 -6 -34 -100 -22 -118 4 -7 34 -8 84 -3 115 10
156 -8 130 -56 -14 -26 -46 -30 -128 -16 -40 7 -75 10 -77 7 -3 -2 -5 -38 -5
-79 l0 -75 108 7 c115 7 152 -4 152 -43 0 -40 -24 -46 -146 -32 -62 7 -118 10
-124 6 -5 -3 -19 -1 -30 5 -19 10 -20 20 -20 224 0 186 2 215 16 227 11 9 56
16 128 20 116 5 143 3 164 -13z m2584 5 c10 -9 18 -26 18 -38 0 -11 22 -54 49
-95 27 -41 54 -95 61 -119 14 -53 31 -81 48 -81 11 0 12 26 7 133 -3 72 -8
141 -10 152 -9 42 32 64 67 35 20 -16 22 -21 11 -52 -19 -55 -17 -268 3 -317
16 -40 16 -43 -2 -62 -47 -52 -96 -41 -108 24 -4 19 -16 47 -27 62 -12 14 -36
61 -54 104 -39 93 -56 121 -71 121 -15 0 -24 -60 -12 -82 5 -10 8 -46 7 -80
-1 -35 1 -82 5 -106 12 -68 -35 -100 -69 -48 -13 20 -14 34 -5 90 6 36 9 124
8 195 -3 125 -2 131 21 155 29 31 29 31 53 9z m3069 -15 c11 -17 -2 -48 -24
-59 -14 -8 -46 -8 -114 2 -111 15 -114 13 -121 -66 l-4 -55 98 6 c84 6 101 4
112 -9 19 -23 11 -50 -18 -64 -19 -9 -41 -9 -97 1 -40 7 -76 10 -80 7 -5 -3
-9 -39 -9 -80 l-2 -74 114 7 c105 6 115 5 134 -14 24 -24 25 -34 3 -56 -15
-14 -28 -15 -97 -9 -45 5 -107 9 -139 10 -32 1 -61 5 -64 9 -4 4 -6 102 -6
218 2 181 4 213 19 229 14 15 34 19 128 21 110 3 155 -3 167 -24z m516 7 c43
-18 73 -69 73 -123 0 -51 -20 -86 -60 -102 -17 -7 -30 -17 -30 -22 0 -13 49
-98 77 -131 28 -35 29 -58 4 -81 -41 -37 -56 -21 -119 129 l-30 70 -48 7 c-26
4 -51 5 -56 2 -4 -3 -6 -24 -3 -47 16 -155 16 -156 -6 -167 -16 -9 -26 -8 -46
5 -24 16 -25 20 -18 73 4 32 7 125 7 208 -1 144 0 152 21 171 12 11 28 22 35
24 26 8 168 -4 199 -16z m624 -1 c8 -10 -6 -65 -62 -235 -60 -183 -76 -223
-95 -231 -31 -15 -51 3 -64 56 -6 22 -17 57 -24 76 -8 19 -33 95 -57 168 l-43
133 26 26 c29 29 48 24 48 -14 0 -14 16 -82 35 -152 20 -69 40 -143 46 -163
18 -68 49 -35 49 52 0 15 8 51 19 81 10 30 24 88 31 129 6 41 18 80 26 86 17
14 48 8 65 -12z m1693 -11 c9 -23 -21 -63 -46 -63 -12 0 -59 5 -105 12 -58 8
-86 9 -94 1 -5 -5 -13 -36 -16 -67 l-6 -56 99 6 c108 7 129 -1 122 -47 -4 -32
-43 -39 -127 -25 -39 7 -74 10 -78 7 -5 -3 -8 -39 -9 -80 l-1 -74 113 7 c99 5
114 4 134 -12 29 -23 20 -59 -17 -68 -14 -4 -70 -1 -124 5 -55 7 -107 10 -117
7 -43 -14 -46 1 -44 224 1 184 3 215 18 231 14 15 34 19 128 21 119 3 161 -4
170 -29z m-12504 12 c10 -12 9 -32 -5 -99 -20 -94 -17 -284 4 -324 10 -19 8
-23 -20 -38 -57 -29 -61 -15 -64 223 -1 114 2 218 7 231 9 26 58 31 78 7z
m1770 -7 c76 -52 99 -128 58 -188 -13 -19 -39 -45 -58 -58 -30 -20 -44 -23
-95 -19 -33 2 -67 6 -75 8 -13 3 -15 -11 -15 -91 1 -96 -7 -119 -42 -120 -22
0 -45 32 -38 54 14 50 22 198 14 290 -8 100 -8 101 17 124 22 19 36 22 113 22
75 0 93 -3 121 -22z m1036 3 c61 -37 86 -83 97 -179 15 -132 -16 -212 -98
-259 -97 -55 -206 -1 -245 121 -16 51 -9 191 13 232 46 88 160 130 233 85z
m662 7 c16 -16 15 -53 -2 -67 -14 -12 -164 -11 -221 0 -16 3 -20 -2 -21 -26
-1 -16 -5 -48 -9 -69 l-8 -39 39 7 c114 19 154 19 174 1 24 -21 26 -58 5 -75
-14 -11 -100 -4 -186 16 l-26 6 4 -74 c2 -40 9 -85 15 -100 11 -31 5 -46 -26
-58 -14 -5 -26 -3 -36 6 -13 11 -16 47 -15 235 1 205 2 222 20 235 25 18 275
20 293 2z m1057 -6 c17 -10 39 -35 49 -55 17 -31 18 -38 6 -52 -36 -43 -81
-36 -99 15 -10 30 -12 31 -63 28 -47 -3 -54 -6 -66 -31 -12 -24 -11 -31 1 -51
12 -18 28 -24 77 -29 99 -11 150 -61 150 -148 0 -56 -31 -103 -84 -128 -49
-24 -61 -25 -123 -10 -107 27 -158 149 -63 149 11 0 22 -10 26 -22 13 -44 34
-58 87 -58 61 0 87 20 87 65 0 42 -25 63 -83 71 -116 16 -176 110 -129 204 10
20 32 42 52 52 47 24 136 24 175 0z m587 -22 c45 -48 48 -71 12 -99 -33 -26
-65 -15 -76 28 -8 30 -10 31 -63 31 -59 0 -75 -14 -75 -64 0 -31 19 -42 95
-51 50 -6 65 -13 96 -44 49 -49 58 -93 31 -155 -46 -102 -176 -124 -267 -44
-57 49 -56 108 0 108 17 0 28 -10 42 -37 18 -37 19 -38 80 -41 62 -3 63 -3 79
30 29 62 -14 108 -102 108 -52 0 -122 79 -124 138 0 39 39 102 73 117 18 8 61
14 96 15 62 0 65 -1 103 -40z m488 21 c7 -14 6 -39 -6 -88 -16 -68 -15 -272 1
-334 5 -21 2 -27 -21 -38 -25 -11 -30 -10 -45 8 -15 18 -17 49 -18 227 0 122
4 214 10 225 13 26 65 26 79 0z m619 -8 c48 -36 72 -94 78 -193 7 -109 -9
-162 -67 -214 -97 -87 -230 -42 -275 94 -32 98 -7 239 53 293 53 48 159 58
211 20z m1065 5 c9 -12 16 -41 16 -64 0 -61 57 -273 86 -316 27 -42 30 -61 12
-76 -44 -35 -87 -16 -97 42 l-6 38 -83 2 -84 2 5 -31 c7 -40 -4 -58 -33 -53
-47 7 -47 27 3 185 25 81 51 171 58 198 17 74 33 95 74 95 24 0 39 -7 49 -22z
m478 -45 c-6 -15 -14 -98 -16 -183 l-6 -156 125 4 124 4 13 -27 c11 -25 10
-29 -12 -47 -19 -15 -33 -18 -74 -13 -28 3 -89 7 -135 10 -49 2 -87 9 -91 16
-4 6 -8 99 -9 207 l-2 195 28 29 c27 28 27 28 47 9 16 -17 17 -24 8 -48z
m1360 27 c46 -46 50 -86 8 -107 -31 -15 -62 2 -70 38 -5 21 -12 24 -57 27 -57
3 -83 -13 -83 -53 0 -36 23 -51 90 -58 91 -10 150 -65 150 -142 0 -102 -107
-177 -207 -145 -80 26 -142 100 -113 135 23 28 60 18 75 -19 17 -40 30 -46 95
-46 39 0 52 4 64 22 37 52 9 104 -62 114 -67 9 -109 31 -132 69 -35 57 -24
132 26 176 27 24 42 27 113 28 61 1 65 -1 103 -39z m2121 19 c12 -17 13 -27 2
-64 -27 -89 -27 -295 -1 -357 6 -12 0 -21 -23 -32 -27 -14 -31 -14 -45 0 -14
13 -16 49 -16 233 0 155 3 220 12 229 19 19 55 14 71 -9z m634 0 c58 -28 85
-64 81 -108 -2 -28 -9 -38 -30 -45 -25 -9 -33 -5 -82 42 -63 60 -90 65 -131
25 -38 -38 -47 -67 -47 -146 1 -121 51 -182 129 -159 32 10 44 20 58 52 22 48
56 62 85 35 27 -24 25 -47 -7 -86 -30 -35 -114 -79 -153 -79 -32 0 -100 32
-121 56 -48 55 -68 231 -35 309 47 111 150 154 253 104z m1133 -5 c17 -15 37
-39 45 -54 12 -23 12 -30 0 -47 -29 -42 -90 -29 -97 20 -3 19 -10 22 -52 25
-55 4 -86 -16 -86 -54 0 -35 23 -50 90 -57 91 -10 150 -64 150 -140 0 -104
-102 -177 -203 -147 -82 24 -147 99 -117 135 23 28 60 18 75 -19 17 -40 30
-46 95 -46 39 0 52 4 64 22 37 52 9 104 -62 114 -67 9 -109 31 -132 69 -35 57
-24 132 26 176 27 24 42 27 111 28 52 1 66 -3 93 -25z m-5606 -204 c41 -140
48 -218 10 -100 -36 110 -74 247 -74 262 1 29 31 -45 64 -162z m-7344 -10 c0
-214 -14 -262 -20 -70 -6 177 -2 250 11 229 5 -8 9 -79 9 -159z m5596 -32 c-1
-97 -5 -171 -11 -177 -12 -12 -20 352 -9 371 15 23 20 -30 20 -194z m5644 14
c0 -97 -5 -184 -10 -192 -6 -10 -10 51 -10 183 0 130 3 196 10 192 6 -4 10
-76 10 -183z m-4570 129 c-1 -10 -6 -7 -15 9 -19 33 -18 50 0 26 8 -11 15 -27
15 -35z m3890 2 c11 -26 18 -54 14 -62 -4 -11 -12 0 -24 34 -31 85 -24 105 10
28z m-6608 15 c-15 -15 -182 -24 -182 -10 0 7 32 12 83 15 45 1 89 4 97 5 11
2 11 -1 2 -10z m5648 3 c0 -12 -52 -21 -121 -21 -92 0 -81 19 13 23 46 1 89 4
96 5 6 1 12 -2 12 -7z m2830 0 c0 -12 -52 -21 -121 -21 -92 0 -81 19 13 23 46
1 89 4 96 5 6 1 12 -2 12 -7z m-11835 -11 c3 -5 -1 -10 -9 -10 -12 0 -16 -16
-18 -72 l-3 -73 -5 63 c-5 65 2 102 19 102 5 0 13 -4 16 -10z m2773 -4 c20
-21 -89 -33 -133 -15 l-30 12 25 8 c26 8 128 4 138 -5z m1030 -9 c3 -15 -2
-18 -30 -15 -22 2 -34 9 -36 21 -3 15 2 18 30 15 22 -2 34 -9 36 -21z m560 1
c3 -14 -3 -18 -27 -18 -31 0 -47 13 -36 31 11 16 59 6 63 -13z m4010 10 c20
-20 14 -28 -22 -28 -36 0 -52 12 -41 30 9 14 48 13 63 -2z m2776 3 c3 -5 -3
-11 -13 -14 -36 -9 -52 -132 -26 -199 4 -10 3 -18 -3 -18 -17 0 -32 60 -32
127 0 55 4 68 25 88 25 26 40 31 49 16z m1124 -3 c20 -20 14 -28 -22 -28 -36
0 -52 12 -41 30 9 14 48 13 63 -2z m-12473 -7 c3 -5 1 -12 -5 -16 -5 -3 -10 1
-10 9 0 18 6 21 15 7z m7369 -215 c7 -14 5 -17 -10 -14 -17 3 -19 14 -21 93
-3 121 10 143 17 30 3 -49 10 -98 14 -109z m2960 43 c-20 -63 -40 -118 -45
-124 -13 -13 -12 -7 21 95 17 51 30 97 30 101 0 18 23 63 27 53 2 -7 -13 -63
-33 -125z m-4444 -39 c-21 -86 -91 -159 -167 -175 -18 -4 -8 4 27 22 35 18 65
43 82 68 30 42 57 131 60 193 1 30 2 27 5 -13 3 -27 -1 -70 -7 -95z m557 73
c-2 -16 -4 -5 -4 22 0 28 2 40 4 28 2 -13 2 -35 0 -50z m-3943 -25 c-8 -71
-29 -120 -70 -162 -29 -29 -111 -72 -121 -63 -2 3 11 10 31 17 39 13 106 80
123 125 7 17 17 56 23 88 6 31 14 57 16 57 3 0 2 -28 -2 -62z m7296 22 c0 -5
-5 -10 -11 -10 -5 0 -7 5 -4 10 3 6 8 10 11 10 2 0 4 -4 4 -10z m-6270 -35
c-13 -16 -75 -20 -107 -7 -12 5 2 9 42 13 33 3 64 6 69 7 5 1 3 -5 -4 -13z
m5646 0 c-21 -16 -66 -19 -106 -7 -19 5 -10 8 40 13 36 3 70 6 75 7 6 1 1 -5
-9 -13z m2830 0 c-21 -16 -66 -19 -106 -7 -19 5 -10 8 40 13 36 3 70 6 75 7 6
1 1 -5 -9 -13z m-8006 -10 c16 -10 12 -33 -7 -43 -24 -13 -56 1 -77 33 l-17
26 45 -5 c25 -2 50 -7 56 -11z m565 -6 c16 -16 -10 -44 -36 -41 -22 2 -58 36
-59 55 0 10 82 -2 95 -14z m4016 -1 c11 -17 -19 -48 -39 -41 -22 8 -62 44 -62
56 0 14 92 0 101 -15z m3901 -1 c10 -17 -21 -47 -40 -40 -22 8 -62 44 -62 56
0 13 93 -2 102 -16z m-10785 -49 l-15 -43 -1 46 c-1 48 7 65 22 50 6 -6 3 -26
-6 -53z m4517 11 c30 -59 31 -60 11 -53 -8 4 -22 1 -30 -6 -13 -11 -15 -4 -15
49 0 33 2 61 4 61 3 0 16 -23 30 -51z m3401 2 c-3 -17 -11 -33 -16 -36 -10 -7
-13 68 -2 79 14 13 25 -13 18 -43z m-9439 3 c-4 -14 -9 -24 -12 -21 -3 2 -2
17 2 31 3 15 9 25 11 22 3 -3 2 -17 -1 -32z m2673 24 c-1 -7 -5 -24 -9 -38 -7
-22 -8 -21 -9 13 -1 20 4 37 9 37 6 0 10 -6 9 -12z m-1650 -10 c-1 -7 -5 -24
-9 -38 -7 -22 -8 -21 -9 13 -1 20 4 37 9 37 6 0 10 -6 9 -12z m2171 -24 c0 -8
-5 -12 -10 -9 -6 4 -8 11 -5 16 9 14 15 11 15 -7z m5650 -5 c0 -5 -4 -9 -10
-9 -5 0 -10 7 -10 16 0 8 5 12 10 9 6 -3 10 -10 10 -16z m2830 6 c0 -8 -4 -15
-10 -15 -5 0 -10 7 -10 15 0 8 5 15 10 15 6 0 10 -7 10 -15z m-5036 -71 c28
-11 17 -20 -17 -16 -27 3 -37 -1 -50 -22 -23 -34 -40 -34 -22 1 21 40 50 52
89 37z m4651 -54 c-3 -5 -11 -10 -16 -10 -6 0 -7 5 -4 10 3 6 11 10 16 10 6 0
7 -4 4 -10z m-3985 -20 c0 -5 -11 -10 -25 -10 -14 0 -25 5 -25 10 0 6 11 10
25 10 14 0 25 -4 25 -10z m-87 -7 c-13 -2 -33 -2 -45 0 -13 2 -3 4 22 4 25 0
35 -2 23 -4z"/>
<path d="M2876 1152 c-11 -18 -23 -121 -15 -133 6 -10 16 -10 46 -2 21 6 52 9
70 6 39 -6 73 24 73 67 0 36 -23 50 -85 50 -25 0 -55 5 -65 10 -10 6 -21 6
-24 2z m119 -56 c0 -16 -8 -20 -42 -22 -45 -2 -59 7 -49 32 4 11 18 14 48 12
35 -2 43 -7 43 -22z"/>
<path d="M10787 1153 c-2 -4 -8 -39 -12 -77 l-7 -69 39 8 c21 4 53 7 71 6 66
-2 108 49 78 94 -12 19 -27 24 -73 27 -32 2 -65 8 -74 12 -10 4 -19 4 -22 -1z
m121 -46 c17 -20 0 -33 -45 -35 -39 -1 -43 1 -43 24 0 21 4 24 39 24 21 0 43
-6 49 -13z"/>
<path d="M2367 1093 c-4 -32 -10 -69 -14 -82 -6 -22 -4 -23 18 -17 13 4 49 11
81 15 64 8 84 21 91 57 7 38 -23 69 -70 70 -21 1 -52 5 -69 9 l-31 7 -6 -59z
m128 -8 c0 -15 -8 -21 -34 -23 -38 -4 -57 9 -47 33 4 12 16 15 43 13 30 -2 38
-7 38 -23z"/>
<path d="M3447 1119 c-70 -41 -68 -251 2 -289 35 -18 98 -12 120 11 57 62 45
245 -18 279 -25 13 -81 12 -104 -1z m93 -19 c25 -25 27 -49 2 -27 -26 23 -49
21 -66 -5 -36 -56 -27 -162 17 -193 19 -15 20 -16 3 -13 -76 13 -87 218 -14
248 33 13 36 12 58 -10z"/>
<path d="M6832 1108 c-29 -32 -42 -71 -42 -131 0 -70 16 -123 43 -142 31 -22
102 -20 126 4 54 54 54 210 -1 268 -30 32 -96 32 -126 1z m98 -8 c26 -26 27
-49 1 -26 -43 39 -81 -3 -81 -91 0 -61 15 -100 42 -109 11 -3 17 -8 15 -11 -3
-3 -15 -2 -26 2 -33 10 -51 57 -51 130 0 60 3 69 29 96 35 34 44 36 71 9z"/>
<path d="M7982 1058 c-6 -18 -13 -49 -16 -69 -4 -21 -15 -48 -26 -62 -11 -14
-20 -28 -20 -31 0 -7 131 -6 142 0 4 3 -4 25 -17 51 -14 25 -25 58 -25 72 0
35 -11 71 -20 71 -5 0 -13 -15 -18 -32z m33 -98 c3 -5 1 -10 -4 -10 -6 0 -11
5 -11 10 0 6 2 10 4 10 3 0 8 -4 11 -10z"/>
</g>
</svg>
