<?xml version="1.0" standalone="no"?>
<!DOCTYPE svg PUBLIC "-//W3C//DTD SVG 20010904//EN"
 "http://www.w3.org/TR/2001/REC-SVG-20010904/DTD/svg10.dtd">
<svg version="1.0" xmlns="http://www.w3.org/2000/svg"
 width="1046.000000pt" height="388.000000pt" viewBox="0 0 1046.000000 388.000000"
 preserveAspectRatio="xMidYMid meet">

<g transform="translate(0.000000,388.000000) scale(0.100000,-0.100000)"
fill="#000000" stroke="none">
<path d="M0 1940 l0 -1940 3177 0 3177 0 -38 32 c-21 18 -55 48 -76 66 -42 36
-72 40 -135 17 -58 -21 -62 -19 -68 27 -3 24 -9 61 -15 83 -6 22 -18 75 -27
118 -10 42 -26 89 -37 102 -29 37 -17 57 29 49 53 -8 77 12 75 61 -2 49 -18
68 -54 61 -45 -9 -58 14 -58 107 -1 45 -10 123 -20 172 -11 50 -22 116 -24
147 -7 93 -6 92 -99 111 -45 9 -97 15 -116 13 -51 -4 -61 13 -61 108 0 62 -4
87 -15 96 -23 19 -18 47 9 52 33 7 132 -84 151 -138 7 -21 17 -40 22 -41 10
-4 43 71 43 94 0 6 21 29 46 50 99 81 125 113 122 152 -3 33 -1 36 33 41 20 4
101 2 180 -2 144 -9 500 -5 724 7 77 4 138 3 170 -4 55 -13 905 -21 905 -9 0
4 10 5 23 2 12 -2 38 -7 57 -10 19 -3 45 -13 58 -20 19 -12 21 -18 11 -35 -6
-12 -9 -36 -7 -54 4 -38 -23 -70 -151 -176 l-73 -62 -70 7 c-118 11 -202 35
-304 87 l-96 49 -47 -30 c-25 -17 -61 -40 -78 -51 -18 -12 -33 -25 -33 -30 0
-5 -7 -9 -15 -9 -21 0 -35 -33 -35 -84 0 -36 4 -46 20 -51 11 -3 20 -10 20
-15 0 -4 28 -28 63 -53 l62 -44 95 -2 c52 -1 98 -5 102 -9 4 -4 2 -24 -4 -45
-13 -43 -38 -49 -60 -15 -9 13 -20 19 -30 15 -18 -6 -26 -111 -31 -417 -4
-170 -5 -178 -38 -274 -32 -90 -40 -102 -85 -138 -27 -22 -70 -51 -96 -64 -26
-13 -49 -28 -53 -34 -4 -7 516 -10 1614 -10 l1621 0 0 1940 0 1940 -3765 0
-3765 0 40 -41 c22 -23 40 -51 40 -63 0 -22 19 -82 33 -103 4 -7 7 -47 6 -90
-1 -55 3 -87 15 -108 9 -16 16 -35 16 -41 0 -6 11 -21 24 -33 23 -22 33 -23
228 -27 111 -2 253 -7 313 -12 62 -4 132 -4 160 1 28 5 196 7 374 5 305 -4
324 -3 328 13 5 19 40 36 50 25 6 -6 19 -39 61 -156 29 -80 32 -138 36 -610 3
-341 1 -437 -10 -485 -10 -41 -14 -105 -12 -193 l3 -133 96 173 96 173 56 3
c65 3 54 30 92 -223 14 -93 27 -178 29 -188 4 -16 -2 -18 -42 -15 -47 3 -47 3
-52 43 l-5 40 -65 5 c-96 7 -104 5 -128 -45 -18 -38 -27 -45 -52 -46 -81 -4
-85 -2 -99 28 -9 20 -14 24 -21 13 -4 -7 -7 -20 -5 -29 18 -83 19 -80 -8 -86
-43 -11 -67 2 -67 38 l0 32 -57 1 c-61 1 -113 7 -108 12 1 2 -10 15 -25 31
-16 15 -34 48 -40 72 -7 24 -19 52 -27 62 -16 17 -55 24 -51 10 1 -5 -4 -27
-11 -51 -6 -23 -9 -48 -5 -55 4 -6 4 -9 -1 -5 -5 5 -17 -6 -27 -23 -26 -42
-79 -63 -147 -56 -30 3 -59 11 -64 16 -13 13 -47 -86 -47 -135 0 -23 -7 -36
-25 -48 -14 -9 -25 -22 -25 -29 0 -7 -10 -24 -21 -36 l-22 -23 22 -38 c12 -21
21 -42 20 -47 -4 -23 3 -33 25 -33 17 0 31 -11 48 -37 60 -94 61 -103 17 -134
-33 -23 -75 -27 -106 -11 -13 7 -28 6 -49 -3 -26 -11 -32 -20 -37 -52 -4 -36
4 -91 24 -159 5 -17 9 -45 9 -63 0 -18 5 -41 10 -51 6 -11 7 -40 3 -71 -8 -49
-11 -54 -65 -92 -64 -45 -48 -48 -148 25 -47 34 -81 38 -195 24 -22 -2 -54 -5
-71 -5 -25 -1 -36 -9 -61 -49 -35 -54 -103 -193 -103 -211 0 -14 118 -217 135
-231 6 -5 33 -14 60 -21 28 -6 58 -15 68 -21 10 -5 22 -6 27 -3 5 3 18 0 29
-7 15 -9 25 -9 46 0 14 7 32 12 40 12 43 0 -17 -66 -67 -75 -21 -4 -42 -13
-49 -21 -7 -9 -33 -14 -73 -14 -34 0 -67 -5 -72 -10 -7 -7 -97 -9 -265 -6
-315 6 -362 9 -442 31 -54 15 -72 15 -113 5 -115 -28 -169 -33 -344 -33 -188
0 -280 7 -310 23 -9 5 -139 9 -289 9 -267 1 -273 1 -304 23 -42 31 -65 44
-108 63 -26 11 -40 27 -53 58 -10 23 -22 51 -27 62 -25 54 -49 142 -49 179 0
23 -7 61 -16 86 -13 37 -14 73 -8 215 15 364 11 445 -37 685 -15 75 -16 137
-5 270 7 77 6 104 -7 142 -9 26 -21 89 -27 140 -11 89 -20 110 -53 121 -15 5
-10 567 5 584 5 7 9 41 8 75 -4 95 -2 106 25 130 28 24 33 48 10 48 -23 0 -17
23 11 43 14 11 26 17 28 15 1 -1 7 -15 14 -30 16 -39 60 -48 84 -18 11 13 37
32 60 42 22 10 53 29 70 43 16 14 34 25 40 25 6 0 25 13 44 29 76 67 113 81
225 84 87 2 108 0 128 -15 13 -10 34 -18 46 -18 21 0 23 3 18 43 -4 23 -9 43
-13 45 -4 1 -16 9 -26 17 -18 13 -17 15 18 29 22 9 66 16 106 16 38 0 93 5
122 10 29 6 176 11 326 11 309 1 324 4 280 56 -14 17 -26 40 -26 51 0 12 -6
49 -14 84 -8 35 -16 84 -20 109 -6 50 0 62 82 158 l44 51 -102 0 c-98 0 -101
-1 -95 -21 9 -28 -14 -119 -30 -119 -9 0 -13 11 -13 31 1 25 -7 38 -33 60 -33
28 -59 37 -59 22 0 -5 4 -24 9 -43 5 -19 12 -54 15 -77 l6 -43 -33 0 c-36 0
-69 28 -82 68 -10 33 -39 27 -66 -15 -18 -28 -32 -39 -54 -41 -26 -2 -35 4
-67 48 -21 28 -38 55 -38 60 0 4 -8 22 -17 39 l-18 31 -902 0 -903 0 0 -1940z
m5227 1734 c11 -29 -13 -39 -57 -24 -59 19 -53 40 12 40 26 0 41 -5 45 -16z
m-625 -54 c34 0 39 -4 53 -36 17 -42 12 -58 -19 -51 -11 3 -30 2 -41 -2 -11
-5 -30 -2 -45 5 -14 7 -45 19 -70 26 -40 12 -45 16 -45 43 0 27 3 30 40 35 23
3 51 0 65 -7 14 -7 42 -13 62 -13z m703 5 c17 -1 40 -8 53 -16 39 -24 23 -79
-23 -79 -31 0 -109 75 -101 96 4 11 12 14 24 9 9 -5 31 -9 47 -10z m778 -443
c30 -31 33 -44 14 -61 -10 -7 -12 -27 -9 -63 5 -67 -16 -91 -75 -86 -33 3 -38
6 -41 31 -2 16 3 38 11 50 21 33 27 69 18 102 -6 23 -4 33 8 42 25 19 45 15
74 -15z m-1305 -71 c2 -6 -5 -11 -16 -11 -11 0 -25 -7 -32 -15 -7 -8 -16 -15
-20 -15 -10 0 -21 41 -14 52 8 12 77 3 82 -11z m277 8 c12 -18 -4 -53 -35 -77
l-30 -24 -62 31 c-33 17 -67 31 -74 31 -6 0 -15 7 -18 16 -6 14 0 16 41 10 31
-4 62 -1 88 9 48 17 81 19 90 4z m770 -39 c-2 -4 6 -12 20 -18 38 -18 52 -78
31 -141 -22 -67 -20 -88 7 -102 12 -7 26 -18 30 -25 4 -8 13 -14 19 -14 6 0
30 -18 54 -40 66 -61 87 -54 96 29 5 39 21 34 53 -17 16 -26 34 -50 39 -54 17
-11 27 2 16 21 -15 29 -16 187 -1 205 15 18 66 21 77 5 3 -6 8 -44 11 -85 3
-58 0 -78 -12 -90 -19 -20 -19 -30 2 -38 21 -9 34 5 53 57 20 54 49 61 79 18
12 -16 24 -43 27 -60 6 -28 20 -40 52 -47 17 -3 31 35 25 68 -6 30 9 42 41 34
25 -6 39 -44 25 -68 -4 -8 -4 -20 1 -28 16 -25 38 7 38 54 -1 24 2 48 6 54 11
18 41 14 61 -8 10 -11 23 -20 30 -20 6 0 29 -13 51 -29 22 -16 52 -33 66 -36
35 -9 56 -33 59 -70 4 -51 0 -61 -27 -73 -20 -10 -29 -9 -46 2 -14 10 -36 13
-72 9 -37 -4 -56 -1 -67 8 -43 41 -47 42 -63 10 -9 -16 -16 -32 -16 -35 0 -10
45 -47 99 -83 45 -30 57 -34 72 -24 31 19 56 12 88 -24 17 -19 35 -35 41 -35
14 0 13 -14 -7 -55 -18 -39 -42 -46 -50 -15 -3 11 -8 20 -12 20 -13 0 -31 -24
-31 -41 0 -24 -15 -32 -32 -17 -20 19 -101 58 -119 58 -9 0 -27 -9 -40 -19
-21 -17 -27 -17 -50 -5 -15 7 -29 20 -32 29 -11 26 -39 17 -75 -26 -44 -52
-52 -45 -61 59 -2 26 -20 10 -23 -20 -3 -29 -10 -37 -60 -62 -39 -19 -58 -34
-58 -47 0 -10 4 -20 9 -23 8 -5 23 -90 25 -139 1 -10 12 -23 26 -30 44 -22 49
-63 22 -179 -13 -57 -26 -109 -28 -115 -2 -8 -21 -13 -49 -13 -42 0 -45 2 -40
23 17 75 35 172 35 192 0 38 -36 43 -71 9 -28 -27 -40 -56 -54 -134 -18 -98
-12 -90 -67 -90 -47 0 -50 1 -45 23 4 12 18 77 32 145 27 125 27 165 1 143
-11 -9 -12 -6 -8 15 3 17 1 25 -5 21 -6 -4 -10 4 -10 18 0 34 32 52 46 28 10
-17 12 -17 25 0 15 20 40 22 85 6 28 -10 36 -20 32 -41 0 -5 4 -8 9 -8 16 0
12 48 -7 83 -9 18 -17 50 -17 71 -1 58 -20 54 -39 -8 -15 -45 -21 -53 -37 -49
-26 7 -25 33 1 67 29 36 13 51 -28 27 -25 -16 -30 -24 -26 -45 3 -15 9 -29 14
-32 15 -9 10 -54 -6 -54 -8 0 -15 5 -15 10 0 6 -6 10 -14 10 -30 0 -36 25 -19
78 18 57 13 74 -15 49 -10 -10 -26 -17 -35 -17 -26 0 -27 -13 -2 -63 31 -66
32 -138 1 -173 -21 -25 -22 -30 -10 -53 8 -14 14 -51 14 -81 0 -132 -136 -220
-249 -162 -66 33 -93 100 -72 180 24 86 95 136 186 131 52 -3 52 -3 60 39 3
18 11 50 19 72 11 32 11 45 0 76 -7 21 -11 49 -8 61 7 27 -5 29 -47 7 -17 -8
-37 -13 -45 -10 -16 6 -19 47 -5 74 4 9 14 33 21 52 7 19 18 51 26 70 21 56
18 171 -7 227 -12 27 -26 58 -30 71 -5 12 -13 32 -19 45 -21 50 -37 140 -30
171 11 49 28 76 45 70 8 -4 13 -9 10 -14z m-547 -184 c2 -16 -1 -33 -7 -39
-16 -16 -14 -42 4 -57 16 -13 20 -57 7 -76 -22 -34 -72 -17 -72 24 0 15 -7 38
-16 51 -15 21 -15 26 7 71 32 65 71 78 77 26z m616 -652 c21 -8 21 -54 1 -54
-13 0 -35 36 -35 56 0 6 16 5 34 -2z m-64 -11 c0 -5 -5 -15 -10 -23 -8 -12
-10 -11 -10 8 0 12 5 22 10 22 6 0 10 -3 10 -7z m-286 -52 c-2 -2 9 -12 24
-21 28 -17 62 -74 62 -103 0 -10 -13 -16 -42 -19 -24 -2 -44 -1 -46 3 -14 35
-47 59 -79 59 -70 0 -121 -62 -130 -161 -5 -48 -2 -59 19 -83 44 -51 133 -30
154 37 5 17 12 18 52 12 26 -4 48 -8 50 -10 2 -2 -4 -17 -13 -34 -8 -17 -12
-31 -8 -31 20 0 -96 -72 -131 -81 -87 -23 -185 17 -207 85 -19 56 -17 152 4
207 21 55 81 115 133 135 34 12 170 16 158 5z m1701 -35 c-3 -17 -23 -112 -43
-211 l-38 -180 -47 -3 c-26 -2 -47 -1 -47 1 0 3 9 49 20 102 11 54 18 100 15
103 -3 3 -1 10 4 16 14 17 43 174 35 187 -4 8 -3 9 4 5 7 -4 12 -3 12 3 0 11
45 19 73 12 15 -3 17 -10 12 -35z m370 -5 l-7 -41 -49 0 c-34 0 -47 4 -45 13
3 6 7 24 10 39 5 23 12 27 49 30 23 2 44 2 45 1 2 -1 1 -20 -3 -42z m-188 7
c-19 -82 -19 -91 -5 -85 24 9 36 -6 31 -40 -5 -28 -9 -33 -32 -33 -26 0 -28
-4 -45 -81 -14 -67 -15 -83 -4 -90 7 -5 19 -7 26 -4 7 3 12 -5 12 -19 0 -45
-10 -56 -52 -56 -88 0 -105 33 -79 157 18 86 18 88 0 91 -32 6 -17 77 16 77
13 0 20 7 20 20 0 13 18 31 50 52 59 39 69 41 62 11z m-757 -127 c16 -30 12
-38 -19 -49 -23 -8 -34 -7 -51 5 -31 22 -85 27 -99 9 -14 -17 -12 -18 56 -40
78 -26 103 -49 103 -98 0 -32 -6 -46 -30 -68 -59 -55 -180 -52 -237 5 -48 48
-45 55 32 67 12 2 28 -6 39 -20 14 -18 26 -22 51 -19 18 3 38 8 44 11 15 9 14
26 -1 31 -134 47 -152 60 -150 118 1 52 46 86 126 96 57 7 117 -14 136 -48z
m166 -64 c-26 -121 -26 -127 -4 -141 13 -8 24 -6 45 10 36 27 55 67 57 120 0
23 4 40 7 38 4 -2 9 14 13 35 6 42 18 49 72 43 l31 -4 -29 -136 c-36 -174 -36
-172 -59 -172 -10 0 -19 -6 -20 -12 0 -10 -2 -10 -6 0 -2 6 -14 12 -24 12 -11
0 -17 5 -14 10 8 13 4 13 -38 -5 -81 -34 -147 -2 -147 70 0 29 32 194 44 230
2 6 24 9 49 7 l45 -4 -22 -101z m1078 103 c17 -6 27 -19 31 -43 6 -32 2 -61
-28 -202 l-13 -60 -48 -3 c-42 -3 -47 -1 -43 15 18 63 39 202 34 216 -8 21
-36 22 -63 2 -25 -17 -65 -134 -67 -194 l-2 -41 -54 0 c-50 0 -53 1 -47 23 3
12 18 82 33 155 l27 132 42 0 c23 0 44 -5 46 -10 2 -7 16 -6 38 4 41 18 79 20
114 6z m286 -5 c17 -9 30 -21 31 -28 0 -6 5 -2 11 11 9 18 19 22 54 22 30 0
42 -4 39 -12 -2 -7 -18 -80 -35 -163 -52 -244 -72 -271 -201 -263 -81 4 -119
31 -119 83 0 30 1 30 40 27 27 -3 44 -11 51 -23 6 -13 21 -19 43 -19 38 0 53
14 66 59 8 30 8 31 -13 16 -31 -22 -99 -19 -130 6 -33 25 -51 88 -42 143 21
122 115 187 205 141z m-607 -22 c-3 -16 -18 -84 -33 -153 l-26 -125 -43 -6
c-23 -3 -44 -2 -47 3 -3 4 6 59 20 121 14 62 28 129 30 148 3 19 5 35 5 37 1
1 24 2 51 2 50 0 50 0 43 -27z m-1706 -487 c-6 -17 -47 -20 -47 -3 0 9 6 17
13 20 18 6 38 -4 34 -17z m68 4 c-3 -5 -10 -10 -16 -10 -5 0 -9 5 -9 10 0 6 7
10 16 10 8 0 12 -4 9 -10z m1813 -894 c97 -3 116 -14 106 -64 l-7 -33 -130 3
-130 3 -9 26 c-5 16 -5 37 2 54 10 25 13 27 48 20 20 -4 74 -8 120 -9z m440
-33 c4 -43 -11 -49 -145 -58 -125 -7 -134 -3 -116 52 9 26 14 28 84 34 41 3
97 5 124 5 49 -1 50 -2 53 -33z"/>
<path d="M6200 2075 c-11 -13 -10 -14 4 -9 9 3 16 10 16 15 0 13 -6 11 -20 -6z"/>
<path d="M5793 1990 c-28 -12 -49 -54 -52 -106 -2 -48 10 -61 59 -60 27 1 39
8 57 35 29 42 30 94 3 121 -22 22 -33 23 -67 10z"/>
<path d="M8120 1978 c-31 -34 -45 -97 -28 -128 29 -53 99 -29 118 40 13 47 5
87 -20 100 -29 15 -47 12 -70 -12z"/>
<path d="M2607 3799 c7 -7 15 -10 18 -7 3 3 -2 9 -12 12 -14 6 -15 5 -6 -5z"/>
<path d="M2668 3788 c7 -7 12 -18 12 -26 0 -12 36 -52 47 -52 1 0 3 14 3 30 0
20 -5 30 -15 30 -9 0 -18 7 -21 15 -4 8 -13 15 -22 15 -12 0 -13 -3 -4 -12z"/>
<path d="M2577 3760 c-7 -27 9 -35 22 -11 14 26 14 31 -3 31 -7 0 -16 -9 -19
-20z"/>
<path d="M2783 3763 c-7 -3 -13 -11 -13 -19 0 -8 -7 -17 -16 -21 -12 -4 -15
-15 -10 -49 3 -31 1 -48 -10 -58 -19 -20 -18 -26 6 -26 18 0 20 7 20 58 0 45
5 63 21 80 22 24 23 42 2 35z"/>
<path d="M2606 3735 c-8 -8 -18 -15 -23 -15 -11 -1 -53 -90 -53 -113 0 -16 3
-16 38 3 l37 20 7 -22 c6 -22 6 -21 7 4 1 14 -5 29 -11 31 -9 4 -10 8 -2 14
11 8 29 93 20 93 -3 0 -11 -7 -20 -15z"/>
<path d="M2810 3706 c0 -8 5 -18 10 -21 6 -3 10 3 10 14 0 12 -4 21 -10 21 -5
0 -10 -6 -10 -14z"/>
<path d="M2796 3654 c4 -16 12 -32 17 -35 5 -4 7 -14 4 -23 -7 -17 8 -32 17
-18 8 14 -13 78 -30 93 -13 11 -14 9 -8 -17z"/>
<path d="M2530 3570 c0 -5 7 -10 16 -10 8 0 12 5 9 10 -3 6 -10 10 -16 10 -5
0 -9 -4 -9 -10z"/>
<path d="M2600 3570 c0 -5 5 -10 11 -10 5 0 7 5 4 10 -3 6 -8 10 -11 10 -2 0
-4 -4 -4 -10z"/>
<path d="M2580 3549 c0 -5 -4 -8 -8 -5 -5 3 -9 -1 -9 -8 0 -8 9 -11 24 -8 19
3 21 7 12 18 -14 17 -19 18 -19 3z"/>
<path d="M2677 3541 c-3 -12 3 -27 14 -37 17 -16 18 -19 4 -26 -17 -10 -20
-28 -4 -28 10 0 29 13 86 60 7 6 17 10 23 10 11 0 14 23 3 33 -9 9 -43 -22
-43 -40 0 -18 -25 -17 -44 3 -9 8 -16 22 -16 30 0 21 -17 17 -23 -5z"/>
<path d="M2612 3473 c-21 -8 -3 -23 26 -22 16 0 21 3 12 6 -8 3 -17 9 -20 13
-3 4 -11 5 -18 3z"/>
<path d="M1293 2753 c-37 -4 -49 -12 -91 -58 -26 -30 -58 -73 -70 -96 -12 -23
-30 -54 -39 -70 -15 -25 -15 -34 -4 -81 18 -73 87 -203 114 -216 29 -14 138
-42 202 -52 62 -9 84 -1 121 45 16 20 53 63 83 95 l54 60 -7 77 c-8 91 -31
177 -53 198 -35 36 -205 107 -247 103 -12 -1 -40 -3 -63 -5z"/>
<path d="M2263 2749 c-33 -10 -78 -64 -132 -161 -42 -76 -56 -134 -39 -167 37
-74 94 -158 133 -198 40 -40 49 -45 78 -39 17 3 73 10 123 15 49 6 97 13 105
16 8 3 28 29 43 58 16 29 43 79 62 112 18 33 34 70 34 83 0 12 -25 74 -55 136
l-56 115 -57 11 c-31 6 -76 16 -99 21 -51 11 -97 10 -140 -2z"/>
<path d="M3300 2742 c-16 -5 -113 -82 -118 -94 -2 -4 -13 -22 -25 -40 -36 -55
-52 -118 -48 -190 1 -21 76 -130 129 -187 40 -44 41 -44 89 -36 26 4 59 7 73
6 14 -1 53 6 87 15 67 18 83 35 132 136 13 27 27 50 32 54 16 9 10 68 -11 112
-11 22 -20 46 -20 51 0 6 -12 35 -27 66 -30 61 -37 65 -158 85 -38 7 -81 16
-95 20 -14 4 -32 5 -40 2z"/>
<path d="M4817 1995 l-46 -75 61 0 60 0 -6 28 c-3 15 -8 47 -11 71 -3 25 -7
46 -9 48 -1 2 -23 -31 -49 -72z"/>
<path d="M4053 2002 c-7 -4 -9 -13 -4 -21 6 -9 10 -7 14 8 3 12 4 21 4 21 -1
0 -7 -4 -14 -8z"/>
<path d="M3963 1920 c-20 -23 -28 -70 -13 -70 6 0 9 -4 5 -9 -9 -15 32 -23 55
-11 32 17 43 56 24 85 -20 30 -48 32 -71 5z"/>
<path d="M4320 1906 c0 -30 38 -74 65 -77 36 -3 55 1 55 10 0 5 -14 8 -30 6
-18 -2 -28 0 -25 5 4 6 -1 7 -11 3 -13 -5 -15 -3 -9 7 5 9 4 11 -3 6 -13 -8
-28 37 -17 53 3 6 -1 11 -9 11 -10 0 -16 -9 -16 -24z"/>
<path d="M2288 1756 c-42 -18 -72 -48 -113 -112 -21 -33 -49 -76 -63 -96 -24
-37 -24 -37 -7 -90 31 -95 75 -183 98 -197 20 -13 63 -24 207 -53 l55 -11 93
99 c51 54 97 109 102 120 8 21 6 35 -31 164 -6 19 -13 45 -16 58 -6 26 -48 62
-72 62 -10 0 -21 4 -26 9 -12 10 -61 27 -133 47 -61 16 -58 16 -94 0z"/>
<path d="M6094 1343 c-9 -16 -23 -32 -29 -38 -7 -5 -33 -37 -58 -71 -43 -55
-61 -104 -38 -104 5 0 38 -26 73 -57 35 -32 81 -67 102 -78 l38 -20 34 40 c55
63 119 148 126 167 8 19 -27 76 -57 92 -11 6 -43 30 -72 54 -61 50 -93 54
-119 15z"/>
<path d="M6713 1353 c-7 -2 -13 -13 -13 -22 0 -10 -8 -29 -18 -42 -22 -28 -62
-121 -62 -142 0 -15 29 -42 95 -87 20 -14 44 -33 53 -42 29 -31 55 -21 107 39
82 95 96 120 93 167 -3 43 -14 52 -113 92 -16 6 -47 19 -68 28 -39 16 -53 18
-74 9z"/>
<path d="M3718 1339 c-10 -5 -18 -17 -18 -24 0 -20 36 -19 44 1 13 34 5 42
-26 23z"/>
<path d="M1265 766 c-65 -31 -152 -153 -175 -247 -10 -41 -9 -52 13 -107 14
-33 37 -76 51 -95 14 -19 26 -38 26 -43 1 -5 11 -21 23 -36 22 -27 25 -27 161
-32 77 -3 147 -1 157 4 33 18 125 194 135 258 6 43 -11 90 -66 172 -9 14 -29
43 -44 66 -26 39 -30 41 -104 53 -128 21 -146 22 -177 7z"/>
<path d="M2285 761 c-16 -11 -63 -51 -102 -89 l-73 -69 0 -102 c0 -111 6 -131
78 -238 31 -47 39 -53 71 -54 20 0 83 -3 140 -5 87 -4 107 -2 122 12 11 10 19
21 19 26 0 5 25 42 55 83 30 41 57 86 61 100 6 23 -3 73 -26 145 -4 14 -14 45
-21 70 -13 48 -35 80 -53 80 -6 0 -24 7 -40 15 -32 17 -145 45 -179 45 -12 0
-35 -9 -52 -19z"/>
<path d="M6711 691 c-27 -38 -81 -152 -81 -171 0 -21 200 -126 222 -118 18 8
121 204 113 217 -10 17 -184 101 -209 101 -16 0 -32 -10 -45 -29z"/>
<path d="M6792 85 c-37 -12 -142 -72 -142 -82 0 -2 74 -3 165 -3 91 0 165 3
165 8 0 4 -14 15 -30 24 -17 9 -30 24 -30 32 0 35 -55 44 -128 21z"/>
</g>
</svg>
