<?xml version="1.0" standalone="no"?>
<!DOCTYPE svg PUBLIC "-//W3C//DTD SVG 20010904//EN"
 "http://www.w3.org/TR/2001/REC-SVG-20010904/DTD/svg10.dtd">
<svg version="1.0" xmlns="http://www.w3.org/2000/svg"
 width="322.000000pt" height="138.000000pt" viewBox="0 0 322.000000 138.000000"
 preserveAspectRatio="xMidYMid meet">

<g transform="translate(0.000000,138.000000) scale(0.100000,-0.100000)"
fill="#000000" stroke="none">
<path d="M305 990 c-28 -31 -25 -87 6 -111 52 -40 119 -6 119 59 0 64 -83 98
-125 52z"/>
<path d="M580 990 c-27 -27 -27 -83 2 -110 48 -44 118 -11 118 55 0 44 -29 75
-70 75 -17 0 -39 -9 -50 -20z"/>
<path d="M905 990 c-4 -6 -12 -8 -18 -4 -7 3 -3 -2 7 -10 25 -20 46 -21 46 -1
0 9 -6 12 -17 8 -11 -4 -14 -3 -9 5 4 7 5 12 2 12 -3 0 -8 -5 -11 -10z"/>
<path d="M847 974 c-4 -4 -7 -22 -7 -40 0 -54 55 -81 96 -48 10 8 13 13 7 9
-22 -11 -38 7 -19 21 11 8 13 14 7 19 -6 3 -11 1 -11 -4 0 -21 -21 -11 -30 15
-6 14 -14 23 -19 20 -5 -4 -11 -1 -13 5 -2 5 -7 7 -11 3z m23 -54 c0 -5 -5
-10 -11 -10 -5 0 -7 5 -4 10 3 6 8 10 11 10 2 0 4 -4 4 -10z m25 -19 c3 -5 1
-12 -5 -16 -5 -3 -10 1 -10 9 0 18 6 21 15 7z"/>
<path d="M950 945 c0 -8 4 -15 10 -15 5 0 7 7 4 15 -4 8 -8 15 -10 15 -2 0 -4
-7 -4 -15z"/>
<path d="M2506 793 c-3 -21 -6 -66 -6 -101 0 -76 -23 -83 -28 -9 -4 57 -18 61
-32 8 -5 -21 -17 -44 -25 -51 -13 -11 -15 -6 -15 39 l0 51 -54 0 c-77 0 -100
-39 -40 -70 35 -19 30 -28 -16 -26 l-40 1 0 43 c0 47 -19 64 -51 43 -12 -7
-19 -7 -19 -1 0 5 -9 10 -21 10 -15 0 -19 -4 -15 -16 3 -9 6 -36 6 -61 0 -39
2 -44 15 -33 8 7 15 20 15 29 0 9 8 28 18 41 l17 25 5 -50 5 -50 53 -2 c78 -2
107 38 46 65 -13 7 -24 18 -24 27 0 17 16 20 25 5 3 -6 18 -7 32 -4 25 7 26 6
20 -30 -3 -20 -3 -44 0 -52 6 -17 35 -18 51 -2 7 7 15 8 24 1 16 -12 86 -14
94 -2 3 5 0 9 -7 9 -9 0 -10 25 -6 100 5 80 3 100 -7 100 -8 0 -16 -16 -20
-37z"/>
<path d="M1448 788 c13 -13 15 -155 3 -198 -6 -20 -13 -24 -35 -22 -33 4 -32
-21 1 -26 49 -7 73 53 73 186 0 72 0 72 -27 72 -21 0 -24 -3 -15 -12z"/>
<path d="M1536 770 c-42 -50 -31 -126 21 -154 24 -12 33 -12 61 -1 17 8 32 10
32 5 0 -22 21 -8 37 24 25 53 72 56 73 5 0 -28 27 -43 53 -31 17 8 18 11 5 11
-17 1 -35 49 -53 139 -4 17 -12 32 -19 32 -7 0 -28 -33 -47 -74 -34 -74 -60
-96 -113 -96 -23 0 -50 65 -41 99 14 57 63 80 87 41 17 -27 30 -25 26 3 -3 19
-10 22 -49 25 -41 3 -49 0 -73 -28z m207 -62 c-4 -9 -33 -11 -33 -3 0 2 6 16
12 31 l13 27 6 -24 c3 -13 4 -27 2 -31z"/>
<path d="M1913 785 c-26 -19 -47 -77 -38 -107 19 -61 76 -85 123 -52 21 15 25
15 42 -1 39 -35 95 5 88 62 -7 56 -76 57 -99 1 -16 -41 -36 -57 -71 -58 -33 0
-51 28 -51 82 0 65 57 104 85 58 17 -27 30 -25 26 3 -2 18 -10 23 -43 25 -24
2 -49 -3 -62 -13z m185 -119 c-4 -40 -33 -47 -42 -11 -4 14 -2 35 4 46 16 30
42 6 38 -35z"/>
<path d="M2575 780 c-3 -5 -9 -40 -12 -78 -6 -76 7 -100 49 -86 l23 7 -23 8
c-32 12 -32 74 1 84 19 6 19 8 5 12 -12 3 -18 14 -18 34 0 29 -13 39 -25 19z"/>
<path d="M2645 781 c-7 -12 12 -24 25 -16 11 7 4 25 -10 25 -5 0 -11 -4 -15
-9z"/>
<path d="M2895 732 c-22 -2 -45 -8 -52 -14 -16 -13 -17 -54 -2 -64 13 -8 -7
-24 -30 -24 -10 0 -12 9 -8 38 9 53 -4 70 -43 55 -16 -6 -30 -7 -30 -2 0 5 -9
9 -20 9 -11 0 -20 -4 -20 -10 0 -5 5 -10 11 -10 6 0 8 -15 4 -44 -7 -45 9 -75
21 -39 18 55 28 73 40 73 10 0 14 -14 14 -46 0 -45 0 -46 30 -39 32 7 39 -5
15 -25 -19 -16 -19 -25 1 -44 21 -22 56 -20 88 5 43 34 36 47 -39 75 -19 6
-18 7 5 13 24 7 78 87 62 93 -4 2 -25 2 -47 0z m0 -32 c7 -22 -11 -53 -26 -44
-5 3 -9 15 -9 28 0 39 24 50 35 16z m14 -115 c11 -11 -12 -35 -33 -35 -28 0
-40 14 -32 37 5 11 13 13 34 8 15 -4 29 -8 31 -10z"/>
<path d="M593 715 c-22 -15 -30 -70 -12 -81 5 -3 6 2 3 10 -3 9 -1 16 5 16 6
0 11 -7 11 -16 0 -10 6 -13 18 -10 9 3 24 1 32 -4 12 -8 10 -10 -10 -11 -17
-1 -19 -3 -8 -6 10 -2 25 0 35 6 16 9 16 10 -6 19 -16 6 -20 11 -13 16 15 9
16 26 2 26 -5 0 -10 -6 -10 -14 0 -8 -7 -17 -16 -20 -12 -5 -15 -2 -10 9 3 9
2 14 -2 11 -4 -2 -13 -1 -20 3 -9 5 -8 13 4 29 16 24 48 29 60 10 4 -7 3 -8
-4 -4 -7 4 -12 2 -12 -3 0 -6 9 -11 20 -11 17 0 19 -3 11 -19 -8 -14 -7 -20 2
-24 24 -9 20 50 -5 67 -28 20 -48 20 -75 1z"/>
<path d="M2640 676 c0 -59 10 -73 37 -57 10 6 12 11 6 11 -9 0 -13 17 -13 50
0 38 -4 50 -15 50 -11 0 -15 -13 -15 -54z"/>
<path d="M313 455 c-56 -39 -22 -135 47 -135 39 0 70 35 70 77 0 61 -65 94
-117 58z"/>
<path d="M580 450 c-28 -28 -26 -81 3 -108 48 -46 117 -14 117 53 0 44 -29 75
-70 75 -17 0 -39 -9 -50 -20z"/>
<path d="M856 444 c-24 -23 -20 -67 9 -94 20 -19 27 -21 39 -11 8 7 20 10 26
6 5 -3 10 -1 10 4 0 6 -9 11 -20 11 -11 0 -20 -4 -20 -10 0 -5 -7 -7 -15 -4
-8 4 -15 11 -15 17 0 6 3 7 7 4 3 -4 12 -2 19 4 8 6 21 8 30 5 12 -5 15 -2 10
10 -5 13 -2 15 14 11 24 -6 25 -1 6 18 -12 12 -16 12 -26 0 -9 -11 -65 -45
-75 -45 0 0 1 16 3 35 2 19 8 33 12 30 5 -3 11 -1 14 4 11 17 -12 22 -28 5z"/>
<path d="M911 436 c-15 -8 -20 -16 -12 -20 6 -4 11 -3 11 2 0 5 10 14 23 20
12 6 18 11 12 11 -5 0 -21 -6 -34 -13z"/>
<path d="M870 410 c0 -5 5 -10 11 -10 5 0 7 5 4 10 -3 6 -8 10 -11 10 -2 0 -4
-4 -4 -10z"/>
</g>
</svg>
